<svg xmlns="http://www.w3.org/2000/svg" viewBox="0 0 160 100" width="160" height="100" role="img" aria-label="csv seed: the csv machine, seeded into reckoner">
  <rect width="160" height="100" fill="#171a20"/>
  <rect x="14" y="38" width="28" height="24" rx="3" fill="#7ec699"/>
  <path d="M49 58 q0 6 -5 8" stroke="#9aa3b2" stroke-width="3" fill="none" stroke-linecap="round"/>
  <path d="M60 30 v40 M108 30 v40" stroke="#d9a066" stroke-width="3" stroke-linecap="round"/>
  <rect x="66" y="38" width="36" height="24" rx="3" fill="#d9a066" opacity="0.35"/>
  <path d="M87 58 q0 6 -5 8" stroke="#d9a066" stroke-width="3" fill="none" stroke-linecap="round"/>
  <path d="M115 58 q0 6 -5 8" stroke="#9aa3b2" stroke-width="3" fill="none" stroke-linecap="round"/>
  <rect x="122" y="38" width="28" height="24" rx="3" fill="#9aa3b2"/>
  <circle cx="138" cy="86" r="12" fill="#171a20" stroke="#7ec699" stroke-width="2"/>
  <path d="M138 92 v-9 M138 86 q0 -6 6 -6.5 M138 83 q0 -4 -4 -5" stroke="#7ec699" stroke-width="2" fill="none" stroke-linecap="round" stroke-linejoin="round"/>
</svg>
