<svg xmlns="http://www.w3.org/2000/svg" viewBox="0 0 160 100" width="160" height="100" role="img" aria-label="eng seed: the eng machine, seeded into reckoner">
  <rect width="160" height="100" fill="#171a20"/>
  <path d="M33 79 C32 82, 34 85, 37 85 C42 85, 44 75, 44 60 C44 45, 46 35, 51 35 C54 35, 56 38, 55 41"
        stroke="#d9a066" stroke-width="4" fill="none" stroke-linecap="round"/>
  <line x1="66" y1="60" x2="141" y2="60" stroke="#55604a" stroke-width="2"/>
  <path d="M72 60 c7 -26 14 -26 21 0 s14 26 21 0 s14 -26 21 0"
        stroke="#5fa8de" stroke-width="4" fill="none" stroke-linecap="round"/>
  <circle cx="138" cy="82" r="15" fill="#171a20" stroke="#7ec699" stroke-width="2"/>
  <path d="M138 89 v-11 M138 82 q0 -7 7 -8 M138 78 q0 -5 -5 -6" stroke="#7ec699" stroke-width="2" fill="none" stroke-linecap="round" stroke-linejoin="round"/>
</svg>
